<svg xmlns="http://www.w3.org/2000/svg" xmlns:xlink="http://www.w3.org/1999/xlink" contentStyleType="text/css" data-diagram-type="SEQUENCE" height="581px" preserveAspectRatio="none" style="width:1159px;height:581px;background:#FFFFFF;" version="1.1" viewBox="0 0 1159 581" width="1159px" zoomAndPan="magnify"><?plantuml 1.2026.3beta6?><defs/><g><g class="header" data-source-line="3"><text fill="#888888" font-family="sans-serif" font-size="10" lengthAdjust="spacing" textLength="12.2803" x="1140.6763" y="14.2822">v1</text></g><g class="title" data-source-line="1"><text fill="#000000" font-family="sans-serif" font-size="28" font-weight="700" lengthAdjust="spacing" textLength="806.7773" x="173.0896" y="53.6309">PGRWL (PostgreSQL WAL Receiver) &#8212; Backup Flow</text></g><rect fill="#ADD8E6" height="490.0547" style="stroke:#181818;stroke-width:0.5;" width="144.4614" x="1" y="72.2344"/><text fill="#000000" font-family="sans-serif" font-size="13" font-weight="700" lengthAdjust="spacing" textLength="138.4614" x="4" y="84.3013">PostgreSQL Server</text><rect fill="#F0FFF0" height="490.0547" style="stroke:#181818;stroke-width:0.5;" width="781.4419" x="147.4614" y="72.2344"/><text fill="#000000" font-family="sans-serif" font-size="13" font-weight="700" lengthAdjust="spacing" textLength="91.5332" x="492.4158" y="84.3013">Components</text><rect fill="#F0F8FF" height="490.0547" style="stroke:#181818;stroke-width:0.5;" width="124.6758" x="1016.0127" y="72.2344"/><text fill="#000000" font-family="sans-serif" font-size="13" font-weight="700" lengthAdjust="spacing" textLength="118.6758" x="1019.0127" y="84.3013">Remote Storage</text><rect fill="#FFFFE0" height="88.3984" style="stroke:#000000;stroke-width:1.5;" width="435.2563" x="141.4614" y="170.6641"/><rect fill="#D8BFD8" height="117.5313" style="stroke:#000000;stroke-width:1.5;" width="1124.1023" x="19.8542" y="273.0625"/><rect fill="#FFE4E1" height="75.3984" style="stroke:#000000;stroke-width:1.5;" width="358.7925" x="785.1641" y="404.5938"/><g class="participant-lifeline" data-entity-uid="part1" data-qualified-name="PG" data-source-line="9" id="part1-lifeline"><g><title>PostgreSQL</title><rect fill="#000000" fill-opacity="0.00000" height="343.3281" width="8" x="69.2307" y="153.6641"/><line style="stroke:#181818;stroke-width:0.5;stroke-dasharray:5,5;" x1="72.8542" x2="72.8542" y1="153.6641" y2="496.9922"/></g></g><g class="participant-lifeline" data-entity-uid="part2" data-qualified-name="Scheduler" data-source-line="13" id="part2-lifeline"><g><title>Backup Scheduler</title><rect fill="#000000" fill-opacity="0.00000" height="343.3281" width="8" x="217.605" y="153.6641"/><line style="stroke:#181818;stroke-width:0.5;stroke-dasharray:5,5;" x1="221.4614" x2="221.4614" y1="153.6641" y2="496.9922"/></g></g><g class="participant-lifeline" data-entity-uid="part3" data-qualified-name="BackupExec" data-source-line="14" id="part3-lifeline"><g><title>Backup Executor</title><rect fill="#000000" fill-opacity="0.00000" height="343.3281" width="8" x="496.5562" y="153.6641"/><line style="stroke:#181818;stroke-width:0.5;stroke-dasharray:5,5;" x1="500.3945" x2="500.3945" y1="153.6641" y2="496.9922"/></g></g><g class="participant-lifeline" data-entity-uid="part4" data-qualified-name="Retainer" data-source-line="15" id="part4-lifeline"><g><title>Backup Retainer</title><rect fill="#000000" fill-opacity="0.00000" height="343.3281" width="8" x="856.0337" y="153.6641"/><line style="stroke:#181818;stroke-width:0.5;stroke-dasharray:5,5;" x1="859.1641" x2="859.1641" y1="153.6641" y2="496.9922"/></g></g><g class="participant-lifeline" data-entity-uid="part5" data-qualified-name="Storage" data-source-line="19" id="part5-lifeline"><g><title>S3 . SFTP . etc.</title><rect fill="#000000" fill-opacity="0.00000" height="343.3281" width="8" x="1074.3506" y="153.6641"/><line style="stroke:#181818;stroke-width:0.5;stroke-dasharray:5,5;" x1="1077.7446" x2="1077.7446" y1="153.6641" y2="496.9922"/></g></g><g class="participant participant-head" data-entity-uid="part1" data-qualified-name="PG" data-source-line="9" id="part1-head"><text fill="#000000" font-family="sans-serif" font-size="14" lengthAdjust="spacing" textLength="80.7529" x="29.8542" y="150.3623">PostgreSQL</text><path d="M55.2307,101.3672 C55.2307,91.3672 73.2307,91.3672 73.2307,91.3672 C73.2307,91.3672 91.2307,91.3672 91.2307,101.3672 L91.2307,127.3672 C91.2307,137.3672 73.2307,137.3672 73.2307,137.3672 C73.2307,137.3672 55.2307,137.3672 55.2307,127.3672 L55.2307,101.3672" fill="#00BFFF" style="stroke:#181818;stroke-width:0.5;"/><path d="M55.2307,101.3672 C55.2307,111.3672 73.2307,111.3672 73.2307,111.3672 C73.2307,111.3672 91.2307,111.3672 91.2307,101.3672" fill="none" style="stroke:#181818;stroke-width:0.5;"/></g><g class="participant participant-tail" data-entity-uid="part1" data-qualified-name="PG" data-source-line="9" id="part1-tail"><text fill="#000000" font-family="sans-serif" font-size="14" lengthAdjust="spacing" textLength="80.7529" x="29.8542" y="508.9873">PostgreSQL</text><path d="M55.2307,522.2891 C55.2307,512.2891 73.2307,512.2891 73.2307,512.2891 C73.2307,512.2891 91.2307,512.2891 91.2307,522.2891 L91.2307,548.2891 C91.2307,558.2891 73.2307,558.2891 73.2307,558.2891 C73.2307,558.2891 55.2307,558.2891 55.2307,548.2891 L55.2307,522.2891" fill="#00BFFF" style="stroke:#181818;stroke-width:0.5;"/><path d="M55.2307,522.2891 C55.2307,532.2891 73.2307,532.2891 73.2307,532.2891 C73.2307,532.2891 91.2307,532.2891 91.2307,522.2891" fill="none" style="stroke:#181818;stroke-width:0.5;"/></g><g class="participant participant-head" data-entity-uid="part2" data-qualified-name="Scheduler" data-source-line="13" id="part2-head"><rect fill="#FFFFE0" height="30.2969" rx="2.5" ry="2.5" style="stroke:#181818;stroke-width:0.5;" width="140.2871" x="151.4614" y="122.3672"/><text fill="#000000" font-family="sans-serif" font-size="14" lengthAdjust="spacing" textLength="126.2871" x="158.4614" y="142.3623">Backup Scheduler</text></g><g class="participant participant-tail" data-entity-uid="part2" data-qualified-name="Scheduler" data-source-line="13" id="part2-tail"><rect fill="#FFFFE0" height="30.2969" rx="2.5" ry="2.5" style="stroke:#181818;stroke-width:0.5;" width="140.2871" x="151.4614" y="495.9922"/><text fill="#000000" font-family="sans-serif" font-size="14" lengthAdjust="spacing" textLength="126.2871" x="158.4614" y="515.9873">Backup Scheduler</text></g><g class="participant participant-head" data-entity-uid="part3" data-qualified-name="BackupExec" data-source-line="14" id="part3-head"><rect fill="#D8BFD8" height="30.2969" rx="2.5" ry="2.5" style="stroke:#181818;stroke-width:0.5;" width="132.3232" x="434.3945" y="122.3672"/><text fill="#000000" font-family="sans-serif" font-size="14" lengthAdjust="spacing" textLength="118.3232" x="441.3945" y="142.3623">Backup Executor</text></g><g class="participant participant-tail" data-entity-uid="part3" data-qualified-name="BackupExec" data-source-line="14" id="part3-tail"><rect fill="#D8BFD8" height="30.2969" rx="2.5" ry="2.5" style="stroke:#181818;stroke-width:0.5;" width="132.3232" x="434.3945" y="495.9922"/><text fill="#000000" font-family="sans-serif" font-size="14" lengthAdjust="spacing" textLength="118.3232" x="441.3945" y="515.9873">Backup Executor</text></g><g class="participant participant-head" data-entity-uid="part4" data-qualified-name="Retainer" data-source-line="15" id="part4-head"><rect fill="#FFE4E1" height="30.2969" rx="2.5" ry="2.5" style="stroke:#181818;stroke-width:0.5;" width="129.7393" x="795.1641" y="122.3672"/><text fill="#000000" font-family="sans-serif" font-size="14" lengthAdjust="spacing" textLength="115.7393" x="802.1641" y="142.3623">Backup Retainer</text></g><g class="participant participant-tail" data-entity-uid="part4" data-qualified-name="Retainer" data-source-line="15" id="part4-tail"><rect fill="#FFE4E1" height="30.2969" rx="2.5" ry="2.5" style="stroke:#181818;stroke-width:0.5;" width="129.7393" x="795.1641" y="495.9922"/><text fill="#000000" font-family="sans-serif" font-size="14" lengthAdjust="spacing" textLength="115.7393" x="802.1641" y="515.9873">Backup Retainer</text></g><g class="participant participant-head" data-entity-uid="part5" data-qualified-name="Storage" data-source-line="19" id="part5-head"><text fill="#000000" font-family="sans-serif" font-size="14" lengthAdjust="spacing" textLength="105.2119" x="1022.7446" y="150.3623">S3 / SFTP / etc.</text><path d="M1060.3506,101.3672 C1060.3506,91.3672 1078.3506,91.3672 1078.3506,91.3672 C1078.3506,91.3672 1096.3506,91.3672 1096.3506,101.3672 L1096.3506,127.3672 C1096.3506,137.3672 1078.3506,137.3672 1078.3506,137.3672 C1078.3506,137.3672 1060.3506,137.3672 1060.3506,127.3672 L1060.3506,101.3672" fill="#E0FFFF" style="stroke:#181818;stroke-width:0.5;"/><path d="M1060.3506,101.3672 C1060.3506,111.3672 1078.3506,111.3672 1078.3506,111.3672 C1078.3506,111.3672 1096.3506,111.3672 1096.3506,101.3672" fill="none" style="stroke:#181818;stroke-width:0.5;"/></g><g class="participant participant-tail" data-entity-uid="part5" data-qualified-name="Storage" data-source-line="19" id="part5-tail"><text fill="#000000" font-family="sans-serif" font-size="14" lengthAdjust="spacing" textLength="105.2119" x="1022.7446" y="508.9873">S3 / SFTP / etc.</text><path d="M1060.3506,522.2891 C1060.3506,512.2891 1078.3506,512.2891 1078.3506,512.2891 C1078.3506,512.2891 1096.3506,512.2891 1096.3506,522.2891 L1096.3506,548.2891 C1096.3506,558.2891 1078.3506,558.2891 1078.3506,558.2891 C1078.3506,558.2891 1060.3506,558.2891 1060.3506,548.2891 L1060.3506,522.2891" fill="#E0FFFF" style="stroke:#181818;stroke-width:0.5;"/><path d="M1060.3506,522.2891 C1060.3506,532.2891 1078.3506,532.2891 1078.3506,532.2891 C1078.3506,532.2891 1096.3506,532.2891 1096.3506,522.2891" fill="none" style="stroke:#181818;stroke-width:0.5;"/></g><path d="M141.4614,170.6641 L360.6221,170.6641 L360.6221,177.7969 L350.6221,187.7969 L141.4614,187.7969 L141.4614,170.6641" fill="#EEEEEE" style="stroke:#000000;stroke-width:1.5;"/><rect fill="none" height="88.3984" style="stroke:#000000;stroke-width:1.5;" width="435.2563" x="141.4614" y="170.6641"/><text fill="#000000" font-family="sans-serif" font-size="13" font-weight="700" lengthAdjust="spacing" textLength="174.1606" x="156.4614" y="183.731">Scheduled Base Backup</text><g class="message" data-entity-1="part2" data-entity-2="part2" data-source-line="23" id="msg1"><line style="stroke:#181818;stroke-width:1;" x1="221.605" x2="263.605" y1="208.9297" y2="208.9297"/><line style="stroke:#181818;stroke-width:1;" x1="263.605" x2="263.605" y1="208.9297" y2="221.9297"/><line style="stroke:#181818;stroke-width:1;" x1="222.605" x2="263.605" y1="221.9297" y2="221.9297"/><polygon fill="#181818" points="232.605,217.9297,222.605,221.9297,232.605,225.9297,228.605,221.9297" style="stroke:#181818;stroke-width:1;"/><text fill="#000000" font-family="sans-serif" font-size="13" lengthAdjust="spacing" textLength="264.9512" x="228.605" y="203.8638">Periodic Cron Schedule &#8594; trigger backup</text></g><g class="message" data-entity-1="part2" data-entity-2="part3" data-source-line="24" id="msg2"><polygon fill="#181818" points="488.5562,247.0625,498.5562,251.0625,488.5562,255.0625,492.5562,251.0625" style="stroke:#181818;stroke-width:1;"/><line style="stroke:#181818;stroke-width:1;stroke-dasharray:2,2;" x1="221.605" x2="494.5562" y1="251.0625" y2="251.0625"/><text fill="#000000" font-family="sans-serif" font-size="13" lengthAdjust="spacing" textLength="181.6128" x="228.605" y="245.9966">Trigger createBasebackup()</text></g><path d="M19.8542,273.0625 L197.0125,273.0625 L197.0125,280.1953 L187.0125,290.1953 L19.8542,290.1953 L19.8542,273.0625" fill="#EEEEEE" style="stroke:#000000;stroke-width:1.5;"/><rect fill="none" height="117.5313" style="stroke:#000000;stroke-width:1.5;" width="1124.1023" x="19.8542" y="273.0625"/><text fill="#000000" font-family="sans-serif" font-size="13" font-weight="700" lengthAdjust="spacing" textLength="132.1582" x="34.8542" y="286.1294">Base Backup Flow</text><g class="message" data-entity-1="part3" data-entity-2="part1" data-source-line="28" id="msg3"><polygon fill="#181818" points="84.2307,307.3281,74.2307,311.3281,84.2307,315.3281,80.2307,311.3281" style="stroke:#181818;stroke-width:1;"/><line style="stroke:#181818;stroke-width:1;" x1="78.2307" x2="499.5562" y1="311.3281" y2="311.3281"/><text fill="#000000" font-family="sans-serif" font-size="13" lengthAdjust="spacing" textLength="321.0073" x="90.2307" y="306.2622">Initiate basebackup (start_backup / stop_backup)</text></g><g class="message" data-entity-1="part3" data-entity-2="part5" data-source-line="29" id="msg4"><polygon fill="#181818" points="1066.3506,336.4609,1076.3506,340.4609,1066.3506,344.4609,1070.3506,340.4609" style="stroke:#181818;stroke-width:1;"/><line style="stroke:#181818;stroke-width:1;" x1="500.5562" x2="1072.3506" y1="340.4609" y2="340.4609"/><text fill="#000000" font-family="sans-serif" font-size="13" lengthAdjust="spacing" textLength="347.6738" x="507.5562" y="335.395">Stream &#8594; Compress &#8594; Encrypt &#8594; Upload basebackup</text></g><g class="message" data-entity-1="part3" data-entity-2="part3" data-source-line="30" id="msg5"><line style="stroke:#181818;stroke-width:1;" x1="500.5562" x2="542.5562" y1="369.5938" y2="369.5938"/><line style="stroke:#181818;stroke-width:1;" x1="542.5562" x2="542.5562" y1="369.5938" y2="382.5938"/><line style="stroke:#181818;stroke-width:1;" x1="501.5562" x2="542.5562" y1="382.5938" y2="382.5938"/><polygon fill="#181818" points="511.5562,378.5938,501.5562,382.5938,511.5562,386.5938,507.5562,382.5938" style="stroke:#181818;stroke-width:1;"/><text fill="#000000" font-family="sans-serif" font-size="13" lengthAdjust="spacing" textLength="345.4775" x="507.5562" y="364.5278">On success &#8594; optionally trigger WAL archive cleanup</text></g><path d="M785.1641,404.5938 L1050.0278,404.5938 L1050.0278,411.7266 L1040.0278,421.7266 L785.1641,421.7266 L785.1641,404.5938" fill="#EEEEEE" style="stroke:#000000;stroke-width:1.5;"/><rect fill="none" height="75.3984" style="stroke:#000000;stroke-width:1.5;" width="358.7925" x="785.1641" y="404.5938"/><text fill="#000000" font-family="sans-serif" font-size="13" font-weight="700" lengthAdjust="spacing" textLength="219.8638" x="800.1641" y="417.6606">Backup Retention (if enabled)</text><g class="message" data-entity-1="part4" data-entity-2="part5" data-source-line="34" id="msg6"><polygon fill="#181818" points="1066.3506,438.8594,1076.3506,442.8594,1066.3506,446.8594,1070.3506,442.8594" style="stroke:#181818;stroke-width:1;"/><line style="stroke:#181818;stroke-width:1;" x1="860.0337" x2="1072.3506" y1="442.8594" y2="442.8594"/><text fill="#000000" font-family="sans-serif" font-size="13" lengthAdjust="spacing" textLength="81.0151" x="867.0337" y="437.7935">List backups</text></g><g class="message" data-entity-1="part4" data-entity-2="part5" data-source-line="35" id="msg7"><polygon fill="#181818" points="1066.3506,467.9922,1076.3506,471.9922,1066.3506,475.9922,1070.3506,471.9922" style="stroke:#181818;stroke-width:1;"/><line style="stroke:#181818;stroke-width:1;" x1="860.0337" x2="1072.3506" y1="471.9922" y2="471.9922"/><text fill="#000000" font-family="sans-serif" font-size="13" lengthAdjust="spacing" textLength="191.585" x="867.0337" y="466.9263">Delete older than KeepPeriod</text></g><g class="footer" data-source-line="2"><text fill="#888888" font-family="sans-serif" font-size="10" lengthAdjust="spacing" textLength="235.5078" x="458.7244" y="572.5713">Cloud-Native PostgreSQL WAL Receiver - pgrwl</text></g><?plantuml-src TPFFRjim3CRlVWh2kII7hFi334KE0zgaoOPbcnTdA7OQ59crXIYI8SbDtDDEUu2XJzWdAHMhjh4ifuWE-UFtKPGJJYB4oM9rkuHXegtB3QRVbt1xjOGLSXJtQ4RmzFiHhXdVLYNCfTx7qPtM3WrCfQwoyLVcA0tELCCOojpiPLGWooYCxz_4aUMC-kxO0IxVluO2HLwuAB9ReKfcs0xMNjTSAvUA1uItbr6qqGVIsRL8qH0yXi7IrrxB2YE0Z3csOHRxcJ4m2ya21ZF4CjtMnrHK6H0nOATwLsg5obdYVQHJFSCzuKYB4roKJ3c8W_-K5vXLqhScRXi57JzHqdpEbDuSa5TEDvNDD_y91kj2MF9xfco5ZWaL6hu4CFX2DVLAst_Dh717TmCfDM8vag4hAJYU32Xz1nUGpjS9_Q3ZhnexJL4mCwsPwk2vqIIcRxDrdv4ROZPwgKitbV67BfX0WaReJ72O6gtQF-3fprzmHkGv5Mp-mo18Dwq9h4CgDyWS-ivDqN3anRP2mr3xqexBI-pUx8cTB2RmIGadY0QR5WT3w-WsVeNe0gpJPOX69v0mkGaTIDRkwCclbK5hZy6DugOktV7yevIQPRrU9xY-tsyARCNv2qYNJcZ5fApReVddnWml_2la4faYOdyKxQf0jrAqxOI1eRW3L6n3b-XDjUlLjxIayd0nzbpE32KnGKl_n5t157ocvzPSkDVo3000?></g></svg>