<svg xmlns="http://www.w3.org/2000/svg" xmlns:xlink="http://www.w3.org/1999/xlink" contentStyleType="text/css" data-diagram-type="SEQUENCE" height="843px" preserveAspectRatio="none" style="width:1233px;height:843px;background:#FFFFFF;" version="1.1" viewBox="0 0 1233 843" width="1233px" zoomAndPan="magnify"><?plantuml 1.2026.3beta6?><defs/><g><g class="header" data-source-line="3"><text fill="#888888" font-family="sans-serif" font-size="10" lengthAdjust="spacing" textLength="12.2803" x="1213.9302" y="14.2822">v1</text></g><g class="title" data-source-line="1"><text fill="#000000" font-family="sans-serif" font-size="28" font-weight="700" lengthAdjust="spacing" textLength="1048.6875" x="88.7615" y="53.6309">PGRWL (PostgreSQL WAL Receiver) &#8212; Streaming &amp; Archiving Flow</text></g><rect fill="#ADD8E6" height="751.25" style="stroke:#181818;stroke-width:0.5;" width="144.4614" x="1" y="72.2344"/><text fill="#000000" font-family="sans-serif" font-size="13" font-weight="700" lengthAdjust="spacing" textLength="138.4614" x="4" y="84.3013">PostgreSQL Server</text><rect fill="#F0FFF0" height="751.25" style="stroke:#181818;stroke-width:0.5;" width="752.7822" x="208.4072" y="72.2344"/><text fill="#000000" font-family="sans-serif" font-size="13" font-weight="700" lengthAdjust="spacing" textLength="91.5332" x="539.0317" y="84.3013">Components</text><rect fill="#F0F8FF" height="751.25" style="stroke:#181818;stroke-width:0.5;" width="124.6758" x="1089.2666" y="72.2344"/><text fill="#000000" font-family="sans-serif" font-size="13" font-weight="700" lengthAdjust="spacing" textLength="118.6758" x="1092.2666" y="84.3013">Remote Storage</text><rect fill="#FFFFE0" height="145.6641" style="stroke:#000000;stroke-width:1.5;" width="438.5945" x="19.8542" y="170.6641"/><rect fill="#D8BFD8" height="167.7969" style="stroke:#000000;stroke-width:1.5;" width="596.7144" x="370.4751" y="330.3281"/><rect fill="#E6E6FA" height="139.6641" style="stroke:#000000;stroke-width:1.5;" width="1014.8032" x="202.4072" y="512.125"/><rect fill="#FFE4E1" height="75.3984" style="stroke:#000000;stroke-width:1.5;" width="379.2319" x="837.9785" y="665.7891"/><g class="participant-lifeline" data-entity-uid="part1" data-qualified-name="PG" data-source-line="9" id="part1-lifeline"><g><title>PostgreSQL</title><rect fill="#000000" fill-opacity="0.00000" height="604.5234" width="8" x="69.2307" y="153.6641"/><line style="stroke:#181818;stroke-width:0.5;stroke-dasharray:5,5;" x1="72.8542" x2="72.8542" y1="153.6641" y2="758.1875"/></g></g><g class="participant-lifeline" data-entity-uid="part2" data-qualified-name="Receiver" data-source-line="13" id="part2-lifeline"><g><title>WAL Receiver</title><rect fill="#000000" fill-opacity="0.00000" height="604.5234" width="8" x="263.8398" y="153.6641"/><line style="stroke:#181818;stroke-width:0.5;stroke-dasharray:5,5;" x1="267.4072" x2="267.4072" y1="153.6641" y2="758.1875"/></g></g><g class="participant-lifeline" data-entity-uid="part3" data-qualified-name="Supervisor" data-source-line="14" id="part3-lifeline"><g><title>Archive Supervisor</title><rect fill="#000000" fill-opacity="0.00000" height="604.5234" width="8" x="449.4487" y="153.6641"/><line style="stroke:#181818;stroke-width:0.5;stroke-dasharray:5,5;" x1="452.4751" x2="452.4751" y1="153.6641" y2="758.1875"/></g></g><g class="participant-lifeline" data-entity-uid="part4" data-qualified-name="Uploader" data-source-line="15" id="part4-lifeline"><g><title>WAL Uploader</title><rect fill="#000000" fill-opacity="0.00000" height="604.5234" width="8" x="777.4316" y="153.6641"/><line style="stroke:#181818;stroke-width:0.5;stroke-dasharray:5,5;" x1="780.8848" x2="780.8848" y1="153.6641" y2="758.1875"/></g></g><g class="participant-lifeline" data-entity-uid="part5" data-qualified-name="Retainer" data-source-line="16" id="part5-lifeline"><g><title>WAL Retainer</title><rect fill="#000000" fill-opacity="0.00000" height="604.5234" width="8" x="898.584" y="153.6641"/><line style="stroke:#181818;stroke-width:0.5;stroke-dasharray:5,5;" x1="901.9785" x2="901.9785" y1="153.6641" y2="758.1875"/></g></g><g class="participant-lifeline" data-entity-uid="part6" data-qualified-name="Storage" data-source-line="20" id="part6-lifeline"><g><title>S3 . SFTP . etc.</title><rect fill="#000000" fill-opacity="0.00000" height="604.5234" width="8" x="1147.6045" y="153.6641"/><line style="stroke:#181818;stroke-width:0.5;stroke-dasharray:5,5;" x1="1150.9985" x2="1150.9985" y1="153.6641" y2="758.1875"/></g></g><g class="participant participant-head" data-entity-uid="part1" data-qualified-name="PG" data-source-line="9" id="part1-head"><text fill="#000000" font-family="sans-serif" font-size="14" lengthAdjust="spacing" textLength="80.7529" x="29.8542" y="150.3623">PostgreSQL</text><path d="M55.2307,101.3672 C55.2307,91.3672 73.2307,91.3672 73.2307,91.3672 C73.2307,91.3672 91.2307,91.3672 91.2307,101.3672 L91.2307,127.3672 C91.2307,137.3672 73.2307,137.3672 73.2307,137.3672 C73.2307,137.3672 55.2307,137.3672 55.2307,127.3672 L55.2307,101.3672" fill="#00BFFF" style="stroke:#181818;stroke-width:0.5;"/><path d="M55.2307,101.3672 C55.2307,111.3672 73.2307,111.3672 73.2307,111.3672 C73.2307,111.3672 91.2307,111.3672 91.2307,101.3672" fill="none" style="stroke:#181818;stroke-width:0.5;"/></g><g class="participant participant-tail" data-entity-uid="part1" data-qualified-name="PG" data-source-line="9" id="part1-tail"><text fill="#000000" font-family="sans-serif" font-size="14" lengthAdjust="spacing" textLength="80.7529" x="29.8542" y="770.1826">PostgreSQL</text><path d="M55.2307,783.4844 C55.2307,773.4844 73.2307,773.4844 73.2307,773.4844 C73.2307,773.4844 91.2307,773.4844 91.2307,783.4844 L91.2307,809.4844 C91.2307,819.4844 73.2307,819.4844 73.2307,819.4844 C73.2307,819.4844 55.2307,819.4844 55.2307,809.4844 L55.2307,783.4844" fill="#00BFFF" style="stroke:#181818;stroke-width:0.5;"/><path d="M55.2307,783.4844 C55.2307,793.4844 73.2307,793.4844 73.2307,793.4844 C73.2307,793.4844 91.2307,793.4844 91.2307,783.4844" fill="none" style="stroke:#181818;stroke-width:0.5;"/></g><g class="participant participant-head" data-entity-uid="part2" data-qualified-name="Receiver" data-source-line="13" id="part2-head"><rect fill="#FFFFE0" height="30.2969" rx="2.5" ry="2.5" style="stroke:#181818;stroke-width:0.5;" width="110.8652" x="212.4072" y="122.3672"/><text fill="#000000" font-family="sans-serif" font-size="14" lengthAdjust="spacing" textLength="96.8652" x="219.4072" y="142.3623">WAL Receiver</text></g><g class="participant participant-tail" data-entity-uid="part2" data-qualified-name="Receiver" data-source-line="13" id="part2-tail"><rect fill="#FFFFE0" height="30.2969" rx="2.5" ry="2.5" style="stroke:#181818;stroke-width:0.5;" width="110.8652" x="212.4072" y="757.1875"/><text fill="#000000" font-family="sans-serif" font-size="14" lengthAdjust="spacing" textLength="96.8652" x="219.4072" y="777.1826">WAL Receiver</text></g><g class="participant participant-head" data-entity-uid="part3" data-qualified-name="Supervisor" data-source-line="14" id="part3-head"><rect fill="#D8BFD8" height="30.2969" rx="2.5" ry="2.5" style="stroke:#181818;stroke-width:0.5;" width="145.9473" x="380.4751" y="122.3672"/><text fill="#000000" font-family="sans-serif" font-size="14" lengthAdjust="spacing" textLength="131.9473" x="387.4751" y="142.3623">Archive Supervisor</text></g><g class="participant participant-tail" data-entity-uid="part3" data-qualified-name="Supervisor" data-source-line="14" id="part3-tail"><rect fill="#D8BFD8" height="30.2969" rx="2.5" ry="2.5" style="stroke:#181818;stroke-width:0.5;" width="145.9473" x="380.4751" y="757.1875"/><text fill="#000000" font-family="sans-serif" font-size="14" lengthAdjust="spacing" textLength="131.9473" x="387.4751" y="777.1826">Archive Supervisor</text></g><g class="participant participant-head" data-entity-uid="part4" data-qualified-name="Uploader" data-source-line="15" id="part4-head"><rect fill="#E6E6FA" height="30.2969" rx="2.5" ry="2.5" style="stroke:#181818;stroke-width:0.5;" width="113.0938" x="724.8848" y="122.3672"/><text fill="#000000" font-family="sans-serif" font-size="14" lengthAdjust="spacing" textLength="99.0938" x="731.8848" y="142.3623">WAL Uploader</text></g><g class="participant participant-tail" data-entity-uid="part4" data-qualified-name="Uploader" data-source-line="15" id="part4-tail"><rect fill="#E6E6FA" height="30.2969" rx="2.5" ry="2.5" style="stroke:#181818;stroke-width:0.5;" width="113.0938" x="724.8848" y="757.1875"/><text fill="#000000" font-family="sans-serif" font-size="14" lengthAdjust="spacing" textLength="99.0938" x="731.8848" y="777.1826">WAL Uploader</text></g><g class="participant participant-head" data-entity-uid="part5" data-qualified-name="Retainer" data-source-line="16" id="part5-head"><rect fill="#FFE4E1" height="30.2969" rx="2.5" ry="2.5" style="stroke:#181818;stroke-width:0.5;" width="109.2109" x="847.9785" y="122.3672"/><text fill="#000000" font-family="sans-serif" font-size="14" lengthAdjust="spacing" textLength="95.2109" x="854.9785" y="142.3623">WAL Retainer</text></g><g class="participant participant-tail" data-entity-uid="part5" data-qualified-name="Retainer" data-source-line="16" id="part5-tail"><rect fill="#FFE4E1" height="30.2969" rx="2.5" ry="2.5" style="stroke:#181818;stroke-width:0.5;" width="109.2109" x="847.9785" y="757.1875"/><text fill="#000000" font-family="sans-serif" font-size="14" lengthAdjust="spacing" textLength="95.2109" x="854.9785" y="777.1826">WAL Retainer</text></g><g class="participant participant-head" data-entity-uid="part6" data-qualified-name="Storage" data-source-line="20" id="part6-head"><text fill="#000000" font-family="sans-serif" font-size="14" lengthAdjust="spacing" textLength="105.2119" x="1095.9985" y="150.3623">S3 / SFTP / etc.</text><path d="M1133.6045,101.3672 C1133.6045,91.3672 1151.6045,91.3672 1151.6045,91.3672 C1151.6045,91.3672 1169.6045,91.3672 1169.6045,101.3672 L1169.6045,127.3672 C1169.6045,137.3672 1151.6045,137.3672 1151.6045,137.3672 C1151.6045,137.3672 1133.6045,137.3672 1133.6045,127.3672 L1133.6045,101.3672" fill="#E0FFFF" style="stroke:#181818;stroke-width:0.5;"/><path d="M1133.6045,101.3672 C1133.6045,111.3672 1151.6045,111.3672 1151.6045,111.3672 C1151.6045,111.3672 1169.6045,111.3672 1169.6045,101.3672" fill="none" style="stroke:#181818;stroke-width:0.5;"/></g><g class="participant participant-tail" data-entity-uid="part6" data-qualified-name="Storage" data-source-line="20" id="part6-tail"><text fill="#000000" font-family="sans-serif" font-size="14" lengthAdjust="spacing" textLength="105.2119" x="1095.9985" y="770.1826">S3 / SFTP / etc.</text><path d="M1133.6045,783.4844 C1133.6045,773.4844 1151.6045,773.4844 1151.6045,773.4844 C1151.6045,773.4844 1169.6045,773.4844 1169.6045,783.4844 L1169.6045,809.4844 C1169.6045,819.4844 1151.6045,819.4844 1151.6045,819.4844 C1151.6045,819.4844 1133.6045,819.4844 1133.6045,809.4844 L1133.6045,783.4844" fill="#E0FFFF" style="stroke:#181818;stroke-width:0.5;"/><path d="M1133.6045,783.4844 C1133.6045,793.4844 1151.6045,793.4844 1151.6045,793.4844 C1151.6045,793.4844 1169.6045,793.4844 1169.6045,783.4844" fill="none" style="stroke:#181818;stroke-width:0.5;"/></g><path d="M19.8542,170.6641 L175.5764,170.6641 L175.5764,177.7969 L165.5764,187.7969 L19.8542,187.7969 L19.8542,170.6641" fill="#EEEEEE" style="stroke:#000000;stroke-width:1.5;"/><rect fill="none" height="145.6641" style="stroke:#000000;stroke-width:1.5;" width="438.5945" x="19.8542" y="170.6641"/><text fill="#000000" font-family="sans-serif" font-size="13" font-weight="700" lengthAdjust="spacing" textLength="110.7222" x="34.8542" y="183.731">WAL Reception</text><g class="message" data-entity-1="part2" data-entity-2="part1" data-source-line="24" id="msg1"><polygon fill="#181818" points="84.2307,204.9297,74.2307,208.9297,84.2307,212.9297,80.2307,208.9297" style="stroke:#181818;stroke-width:1;"/><line style="stroke:#181818;stroke-width:1;" x1="78.2307" x2="266.8398" y1="208.9297" y2="208.9297"/><text fill="#000000" font-family="sans-serif" font-size="13" lengthAdjust="spacing" textLength="145.7549" x="90.2307" y="203.8638">Receive WAL segment</text></g><g class="message" data-entity-1="part2" data-entity-2="part2" data-source-line="25" id="msg2"><line style="stroke:#181818;stroke-width:1;" x1="267.8398" x2="309.8398" y1="238.0625" y2="238.0625"/><line style="stroke:#181818;stroke-width:1;" x1="309.8398" x2="309.8398" y1="238.0625" y2="251.0625"/><line style="stroke:#181818;stroke-width:1;" x1="268.8398" x2="309.8398" y1="251.0625" y2="251.0625"/><polygon fill="#181818" points="278.8398,247.0625,268.8398,251.0625,278.8398,255.0625,274.8398,251.0625" style="stroke:#181818;stroke-width:1;"/><text fill="#000000" font-family="sans-serif" font-size="13" lengthAdjust="spacing" textLength="132.6343" x="274.8398" y="232.9966">Write to *.partial file</text></g><g class="message" data-entity-1="part2" data-entity-2="part2" data-source-line="26" id="msg3"><line style="stroke:#181818;stroke-width:1;" x1="267.8398" x2="309.8398" y1="295.3281" y2="295.3281"/><line style="stroke:#181818;stroke-width:1;" x1="309.8398" x2="309.8398" y1="295.3281" y2="308.3281"/><line style="stroke:#181818;stroke-width:1;" x1="268.8398" x2="309.8398" y1="308.3281" y2="308.3281"/><polygon fill="#181818" points="278.8398,304.3281,268.8398,308.3281,278.8398,312.3281,274.8398,308.3281" style="stroke:#181818;stroke-width:1;"/><text fill="#000000" font-family="sans-serif" font-size="13" lengthAdjust="spacing" textLength="134.418" x="274.8398" y="275.1294">If segment complete</text><text fill="#000000" font-family="sans-serif" font-size="13" lengthAdjust="spacing" textLength="171.6089" x="274.8398" y="290.2622">&#8594; rename to final WAL file</text></g><path d="M370.4751,330.3281 L592.8794,330.3281 L592.8794,337.4609 L582.8794,347.4609 L370.4751,347.4609 L370.4751,330.3281" fill="#EEEEEE" style="stroke:#000000;stroke-width:1.5;"/><rect fill="none" height="167.7969" style="stroke:#000000;stroke-width:1.5;" width="596.7144" x="370.4751" y="330.3281"/><text fill="#000000" font-family="sans-serif" font-size="13" font-weight="700" lengthAdjust="spacing" textLength="177.4043" x="385.4751" y="343.395">Supervisor Control Loop</text><g class="message" data-entity-1="part3" data-entity-2="part3" data-source-line="30" id="msg4"><line style="stroke:#181818;stroke-width:1;" x1="453.4487" x2="495.4487" y1="368.5938" y2="368.5938"/><line style="stroke:#181818;stroke-width:1;" x1="495.4487" x2="495.4487" y1="368.5938" y2="381.5938"/><line style="stroke:#181818;stroke-width:1;" x1="454.4487" x2="495.4487" y1="381.5938" y2="381.5938"/><polygon fill="#181818" points="464.4487,377.5938,454.4487,381.5938,464.4487,385.5938,460.4487,381.5938" style="stroke:#181818;stroke-width:1;"/><text fill="#000000" font-family="sans-serif" font-size="13" lengthAdjust="spacing" textLength="128.7241" x="460.4487" y="363.5278">RunWithRetention()</text></g><path d="M458,394.5938 L458,434.5938 L655,434.5938 L655,404.5938 L645,394.5938 L458,394.5938" fill="#FEFFDD" style="stroke:#181818;stroke-width:0.5;"/><path d="M645,394.5938 L645,404.5938 L655,404.5938 L645,394.5938" fill="#FEFFDD" style="stroke:#181818;stroke-width:0.5;"/><text fill="#000000" font-family="sans-serif" font-size="13" lengthAdjust="spacing" textLength="176.4902" x="464" y="411.6606">Runs two periodic workers:</text><text fill="#000000" font-family="sans-serif" font-size="13" lengthAdjust="spacing" textLength="146.9038" x="464" y="426.7935">Uploader and Retainer</text><g class="message" data-entity-1="part3" data-entity-2="part4" data-source-line="34" id="msg5"><polygon fill="#181818" points="769.4316,456.9922,779.4316,460.9922,769.4316,464.9922,773.4316,460.9922" style="stroke:#181818;stroke-width:1;"/><line style="stroke:#181818;stroke-width:1;stroke-dasharray:2,2;" x1="453.4487" x2="775.4316" y1="460.9922" y2="460.9922"/><text fill="#000000" font-family="sans-serif" font-size="13" lengthAdjust="spacing" textLength="303.9829" x="460.4487" y="455.9263">Every SyncInterval &#8594; trigger performUploads()</text></g><g class="message" data-entity-1="part3" data-entity-2="part5" data-source-line="35" id="msg6"><polygon fill="#181818" points="890.584,486.125,900.584,490.125,890.584,494.125,894.584,490.125" style="stroke:#181818;stroke-width:1;"/><line style="stroke:#181818;stroke-width:1;stroke-dasharray:2,2;" x1="453.4487" x2="896.584" y1="490.125" y2="490.125"/><text fill="#000000" font-family="sans-serif" font-size="13" lengthAdjust="spacing" textLength="346.8613" x="460.4487" y="485.0591">Every RetentionInterval &#8594; trigger performRetention()</text></g><path d="M202.4072,512.125 L580.7861,512.125 L580.7861,519.2578 L570.7861,529.2578 L202.4072,529.2578 L202.4072,512.125" fill="#EEEEEE" style="stroke:#000000;stroke-width:1.5;"/><rect fill="none" height="139.6641" style="stroke:#000000;stroke-width:1.5;" width="1014.8032" x="202.4072" y="512.125"/><text fill="#000000" font-family="sans-serif" font-size="13" font-weight="700" lengthAdjust="spacing" textLength="333.3789" x="217.4072" y="525.1919">WAL Upload (if remote storage is configured)</text><path d="M786,534.2578 L786,559.2578 L928,559.2578 L928,544.2578 L918,534.2578 L786,534.2578" fill="#FEFFDD" style="stroke:#181818;stroke-width:0.5;"/><path d="M918,534.2578 L918,544.2578 L928,544.2578 L918,534.2578" fill="#FEFFDD" style="stroke:#181818;stroke-width:0.5;"/><text fill="#000000" font-family="sans-serif" font-size="13" lengthAdjust="spacing" textLength="121.7354" x="792" y="551.3247">Skips *.partial files</text><g class="message" data-entity-1="part4" data-entity-2="part2" data-source-line="40" id="msg7"><polygon fill="#181818" points="278.8398,581.5234,268.8398,585.5234,278.8398,589.5234,274.8398,585.5234" style="stroke:#181818;stroke-width:1;"/><line style="stroke:#181818;stroke-width:1;" x1="272.8398" x2="780.4316" y1="585.5234" y2="585.5234"/><text fill="#000000" font-family="sans-serif" font-size="13" lengthAdjust="spacing" textLength="190.5439" x="284.8398" y="580.4575">Scan for completed WAL files</text></g><g class="message" data-entity-1="part4" data-entity-2="part6" data-source-line="41" id="msg8"><polygon fill="#181818" points="1139.6045,610.6563,1149.6045,614.6563,1139.6045,618.6563,1143.6045,614.6563" style="stroke:#181818;stroke-width:1;"/><line style="stroke:#181818;stroke-width:1;" x1="781.4316" x2="1145.6045" y1="614.6563" y2="614.6563"/><text fill="#000000" font-family="sans-serif" font-size="13" lengthAdjust="spacing" textLength="255.7407" x="788.4316" y="609.5903">Compress &#8594; Encrypt &#8594; Upload WAL file</text></g><g class="message" data-entity-1="part4" data-entity-2="part2" data-source-line="42" id="msg9"><polygon fill="#181818" points="278.8398,639.7891,268.8398,643.7891,278.8398,647.7891,274.8398,643.7891" style="stroke:#181818;stroke-width:1;"/><line style="stroke:#181818;stroke-width:1;" x1="272.8398" x2="780.4316" y1="643.7891" y2="643.7891"/><text fill="#000000" font-family="sans-serif" font-size="13" lengthAdjust="spacing" textLength="191.9214" x="284.8398" y="638.7231">On success &#8594; delete local file</text></g><path d="M837.9785,665.7891 L1081.9331,665.7891 L1081.9331,672.9219 L1071.9331,682.9219 L837.9785,682.9219 L837.9785,665.7891" fill="#EEEEEE" style="stroke:#000000;stroke-width:1.5;"/><rect fill="none" height="75.3984" style="stroke:#000000;stroke-width:1.5;" width="379.2319" x="837.9785" y="665.7891"/><text fill="#000000" font-family="sans-serif" font-size="13" font-weight="700" lengthAdjust="spacing" textLength="198.9546" x="852.9785" y="678.856">WAL Retention (if enabled)</text><g class="message" data-entity-1="part5" data-entity-2="part6" data-source-line="46" id="msg10"><polygon fill="#181818" points="1139.6045,700.0547,1149.6045,704.0547,1139.6045,708.0547,1143.6045,704.0547" style="stroke:#181818;stroke-width:1;"/><line style="stroke:#181818;stroke-width:1;" x1="902.584" x2="1145.6045" y1="704.0547" y2="704.0547"/><text fill="#000000" font-family="sans-serif" font-size="13" lengthAdjust="spacing" textLength="86.5503" x="909.584" y="698.9888">List WAL files</text></g><g class="message" data-entity-1="part5" data-entity-2="part6" data-source-line="47" id="msg11"><polygon fill="#181818" points="1139.6045,729.1875,1149.6045,733.1875,1139.6045,737.1875,1143.6045,733.1875" style="stroke:#181818;stroke-width:1;"/><line style="stroke:#181818;stroke-width:1;" x1="902.584" x2="1145.6045" y1="733.1875" y2="733.1875"/><text fill="#000000" font-family="sans-serif" font-size="13" lengthAdjust="spacing" textLength="222.2886" x="909.584" y="728.1216">Delete files older than KeepPeriod</text></g><g class="footer" data-source-line="2"><text fill="#888888" font-family="sans-serif" font-size="10" lengthAdjust="spacing" textLength="235.5078" x="495.3513" y="833.7666">Cloud-Native PostgreSQL WAL Receiver - pgrwl</text></g><?plantuml-src VLJBRjim4BphAnOsK2G5ahw08l2XGEey6jHDNIk5KI0NXbf9X2bI82axwgcdVa3HByoNT4KzepWzcRHtPtPcXtR2IOJ9ydArNi31KbkN60o_BM1zke0LSXHRD8VmyEilXCuWouHAu0MS6fwARNM-a7et2MAj7HgOIrr4HzVCKHSy0mP7a2Tc9uCKMKJNoVRD9B2SqHWPkuUJzwyXHP6aBWZiHgYS6PR1JJNcXLOk53yHtfu4mPs-fx5xYX0DWKzWkgXwFye20u28ENR7B0uh9y0iB2zXUeQOXvlIbwAAW10RsBdESgrGEKjud-XKdk6Eu6WM9xZ8cN8m6Mhoc9t0UeGVACcQSLTj749Ov3ImiBhkxQymlKc59RNx-BxdKbUc-PxsGdniImBGx1_HCQ6w4UiBJByGHxdITYnzXHbjadQj3KkGv9zAmV69dU4xU0NXnSsIFj3nurf4tTJedvTCzU29qKN-o9ak5BaJMX5w7v0Fj9zPU_Tr5fECzZ6gQiypM1j1KpiDBu-z0qn2BBo7--kluXOIE2rReiDRzV3x3nXKBFD8iL24Kf5x95BIgMWsDDpQdB9fj8I5rZcn3duXtlv6gWgr5YwbJH0v2Jyu3AXULQQRoXpGyRZUWjjfeA-4ZWI7dJORD7Psgxe4CBAvtMqmeYV-jcu6vwI-XB1K_4hHWzsImagr8-g4SAWhrYQhwosDzWIgPMcXEXt_mnkA7VhOvXRwRCE1Y6a9FeIsoPEmj2GLYwGm61q-SQjN5sv4RaSHi5JV-VGe0o5d2cYyBW5Hj-rnKvFi6LJ_30QjzIhF5JTbxlovcRwBotEaNnNOWlCM8iAA6AJcRMA7_dIFj7ahZOlU8yhfdQpjw5xrSD85zJxIixVghERtDQ1bDQvBoPRFzD-uz86h1le7?></g></svg>