<svg xmlns="http://www.w3.org/2000/svg" xmlns:xlink="http://www.w3.org/1999/xlink" contentStyleType="text/css" data-diagram-type="SEQUENCE" height="377px" preserveAspectRatio="none" style="width:919px;height:377px;background:#FFFFFF;" version="1.1" viewBox="0 0 919 377" width="919px" zoomAndPan="magnify"><?plantuml 1.2026.3beta6?><defs/><g><g class="header" data-source-line="3"><text fill="#888888" font-family="sans-serif" font-size="10" lengthAdjust="spacing" textLength="12.2803" x="900.001" y="14.2822">v1</text></g><g class="title" data-source-line="1"><text fill="#000000" font-family="sans-serif" font-size="28" font-weight="700" lengthAdjust="spacing" textLength="892.2813" x="10" y="53.6309">PGRWL (PostgreSQL WAL Receiver) &#8212; WAL Serving Flow</text></g><rect fill="#ADD8E6" height="285.2578" style="stroke:#181818;stroke-width:0.5;" width="144.4614" x="65.4976" y="72.2344"/><text fill="#000000" font-family="sans-serif" font-size="13" font-weight="700" lengthAdjust="spacing" textLength="138.4614" x="68.4976" y="84.3013">PostgreSQL Server</text><rect fill="#F0FFF0" height="285.2578" style="stroke:#181818;stroke-width:0.5;" width="115.6729" x="401.5239" y="72.2344"/><text fill="#000000" font-family="sans-serif" font-size="13" font-weight="700" lengthAdjust="spacing" textLength="91.5332" x="413.5938" y="84.3013">Components</text><rect fill="#F0F8FF" height="285.2578" style="stroke:#181818;stroke-width:0.5;" width="124.6758" x="710.8398" y="72.2344"/><text fill="#000000" font-family="sans-serif" font-size="13" font-weight="700" lengthAdjust="spacing" textLength="118.6758" x="713.8398" y="84.3013">Remote Storage</text><rect fill="#FFFFE0" height="104.5313" style="stroke:#000000;stroke-width:1.5;" width="754.4319" x="84.3518" y="170.6641"/><g class="participant-lifeline" data-entity-uid="part1" data-qualified-name="PG" data-source-line="9" id="part1-lifeline"><g><title>PostgreSQL</title><rect fill="#000000" fill-opacity="0.00000" height="138.5313" width="8" x="133.7283" y="153.6641"/><line style="stroke:#181818;stroke-width:0.5;stroke-dasharray:5,5;" x1="137.3518" x2="137.3518" y1="153.6641" y2="292.1953"/></g></g><g class="participant-lifeline" data-entity-uid="part2" data-qualified-name="HttpServer" data-source-line="13" id="part2-lifeline"><g><title>HTTP Server</title><rect fill="#000000" fill-opacity="0.00000" height="138.5313" width="8" x="455.3604" y="153.6641"/><line style="stroke:#181818;stroke-width:0.5;stroke-dasharray:5,5;" x1="458.5239" x2="458.5239" y1="153.6641" y2="292.1953"/></g></g><g class="participant-lifeline" data-entity-uid="part3" data-qualified-name="Storage" data-source-line="17" id="part3-lifeline"><g><title>S3 . SFTP . etc.</title><rect fill="#000000" fill-opacity="0.00000" height="138.5313" width="8" x="769.1777" y="153.6641"/><line style="stroke:#181818;stroke-width:0.5;stroke-dasharray:5,5;" x1="772.5718" x2="772.5718" y1="153.6641" y2="292.1953"/></g></g><g class="participant participant-head" data-entity-uid="part1" data-qualified-name="PG" data-source-line="9" id="part1-head"><text fill="#000000" font-family="sans-serif" font-size="14" lengthAdjust="spacing" textLength="80.7529" x="94.3518" y="150.3623">PostgreSQL</text><path d="M119.7283,101.3672 C119.7283,91.3672 137.7283,91.3672 137.7283,91.3672 C137.7283,91.3672 155.7283,91.3672 155.7283,101.3672 L155.7283,127.3672 C155.7283,137.3672 137.7283,137.3672 137.7283,137.3672 C137.7283,137.3672 119.7283,137.3672 119.7283,127.3672 L119.7283,101.3672" fill="#00BFFF" style="stroke:#181818;stroke-width:0.5;"/><path d="M119.7283,101.3672 C119.7283,111.3672 137.7283,111.3672 137.7283,111.3672 C137.7283,111.3672 155.7283,111.3672 155.7283,101.3672" fill="none" style="stroke:#181818;stroke-width:0.5;"/></g><g class="participant participant-tail" data-entity-uid="part1" data-qualified-name="PG" data-source-line="9" id="part1-tail"><text fill="#000000" font-family="sans-serif" font-size="14" lengthAdjust="spacing" textLength="80.7529" x="94.3518" y="304.1904">PostgreSQL</text><path d="M119.7283,317.4922 C119.7283,307.4922 137.7283,307.4922 137.7283,307.4922 C137.7283,307.4922 155.7283,307.4922 155.7283,317.4922 L155.7283,343.4922 C155.7283,353.4922 137.7283,353.4922 137.7283,353.4922 C137.7283,353.4922 119.7283,353.4922 119.7283,343.4922 L119.7283,317.4922" fill="#00BFFF" style="stroke:#181818;stroke-width:0.5;"/><path d="M119.7283,317.4922 C119.7283,327.4922 137.7283,327.4922 137.7283,327.4922 C137.7283,327.4922 155.7283,327.4922 155.7283,317.4922" fill="none" style="stroke:#181818;stroke-width:0.5;"/></g><g class="participant participant-head" data-entity-uid="part2" data-qualified-name="HttpServer" data-source-line="13" id="part2-head"><rect fill="#FFFFE0" height="46.5938" rx="2.5" ry="2.5" style="stroke:#181818;stroke-width:0.5;" width="107.6729" x="405.5239" y="106.0703"/><text fill="#000000" font-family="sans-serif" font-size="14" lengthAdjust="spacing" textLength="86.4336" x="416.1436" y="126.0654">HTTP Server</text><text fill="#000000" font-family="sans-serif" font-size="14" lengthAdjust="spacing" textLength="93.6729" x="412.5239" y="142.3623">(Serve Mode)</text></g><g class="participant participant-tail" data-entity-uid="part2" data-qualified-name="HttpServer" data-source-line="13" id="part2-tail"><rect fill="#FFFFE0" height="46.5938" rx="2.5" ry="2.5" style="stroke:#181818;stroke-width:0.5;" width="107.6729" x="405.5239" y="291.1953"/><text fill="#000000" font-family="sans-serif" font-size="14" lengthAdjust="spacing" textLength="86.4336" x="416.1436" y="311.1904">HTTP Server</text><text fill="#000000" font-family="sans-serif" font-size="14" lengthAdjust="spacing" textLength="93.6729" x="412.5239" y="327.4873">(Serve Mode)</text></g><g class="participant participant-head" data-entity-uid="part3" data-qualified-name="Storage" data-source-line="17" id="part3-head"><text fill="#000000" font-family="sans-serif" font-size="14" lengthAdjust="spacing" textLength="105.2119" x="717.5718" y="150.3623">S3 / SFTP / etc.</text><path d="M755.1777,101.3672 C755.1777,91.3672 773.1777,91.3672 773.1777,91.3672 C773.1777,91.3672 791.1777,91.3672 791.1777,101.3672 L791.1777,127.3672 C791.1777,137.3672 773.1777,137.3672 773.1777,137.3672 C773.1777,137.3672 755.1777,137.3672 755.1777,127.3672 L755.1777,101.3672" fill="#E0FFFF" style="stroke:#181818;stroke-width:0.5;"/><path d="M755.1777,101.3672 C755.1777,111.3672 773.1777,111.3672 773.1777,111.3672 C773.1777,111.3672 791.1777,111.3672 791.1777,101.3672" fill="none" style="stroke:#181818;stroke-width:0.5;"/></g><g class="participant participant-tail" data-entity-uid="part3" data-qualified-name="Storage" data-source-line="17" id="part3-tail"><text fill="#000000" font-family="sans-serif" font-size="14" lengthAdjust="spacing" textLength="105.2119" x="717.5718" y="304.1904">S3 / SFTP / etc.</text><path d="M755.1777,317.4922 C755.1777,307.4922 773.1777,307.4922 773.1777,307.4922 C773.1777,307.4922 791.1777,307.4922 791.1777,317.4922 L791.1777,343.4922 C791.1777,353.4922 773.1777,353.4922 773.1777,353.4922 C773.1777,353.4922 755.1777,353.4922 755.1777,343.4922 L755.1777,317.4922" fill="#E0FFFF" style="stroke:#181818;stroke-width:0.5;"/><path d="M755.1777,317.4922 C755.1777,327.4922 773.1777,327.4922 773.1777,327.4922 C773.1777,327.4922 791.1777,327.4922 791.1777,317.4922" fill="none" style="stroke:#181818;stroke-width:0.5;"/></g><path d="M84.3518,170.6641 L265.3123,170.6641 L265.3123,177.7969 L255.3123,187.7969 L84.3518,187.7969 L84.3518,170.6641" fill="#EEEEEE" style="stroke:#000000;stroke-width:1.5;"/><rect fill="none" height="104.5313" style="stroke:#000000;stroke-width:1.5;" width="754.4319" x="84.3518" y="170.6641"/><text fill="#000000" font-family="sans-serif" font-size="13" font-weight="700" lengthAdjust="spacing" textLength="135.9604" x="99.3518" y="183.731">HTTP WAL Serving</text><g class="message" data-entity-1="part1" data-entity-2="part2" data-source-line="21" id="msg1"><polygon fill="#181818" points="447.3604,204.9297,457.3604,208.9297,447.3604,212.9297,451.3604,208.9297" style="stroke:#181818;stroke-width:1;"/><line style="stroke:#181818;stroke-width:1;" x1="137.7283" x2="453.3604" y1="208.9297" y2="208.9297"/><text fill="#000000" font-family="sans-serif" font-size="13" lengthAdjust="spacing" textLength="272.7778" x="144.7283" y="203.8638">restore_command requests WAL segment</text></g><g class="message" data-entity-1="part2" data-entity-2="part3" data-source-line="22" id="msg2"><polygon fill="#181818" points="761.1777,234.0625,771.1777,238.0625,761.1777,242.0625,765.1777,238.0625" style="stroke:#181818;stroke-width:1;"/><line style="stroke:#181818;stroke-width:1;" x1="459.3604" x2="767.1777" y1="238.0625" y2="238.0625"/><text fill="#000000" font-family="sans-serif" font-size="13" lengthAdjust="spacing" textLength="287.0854" x="466.3604" y="232.9966">Fetch WAL file (may decompress &amp; decrypt)</text></g><g class="message" data-entity-1="part2" data-entity-2="part1" data-source-line="23" id="msg3"><polygon fill="#181818" points="148.7283,263.1953,138.7283,267.1953,148.7283,271.1953,144.7283,267.1953" style="stroke:#181818;stroke-width:1;"/><line style="stroke:#181818;stroke-width:1;" x1="142.7283" x2="458.3604" y1="267.1953" y2="267.1953"/><text fill="#000000" font-family="sans-serif" font-size="13" lengthAdjust="spacing" textLength="154.9082" x="154.7283" y="262.1294">Return WAL file content</text></g><g class="footer" data-source-line="2"><text fill="#888888" font-family="sans-serif" font-size="10" lengthAdjust="spacing" textLength="235.5078" x="338.3867" y="367.7744">Cloud-Native PostgreSQL WAL Receiver - pgrwl</text></g><?plantuml-src TPBFQi9048VlUOeXGj63jN-WY8U2LTI3BQaHf50eQp8cYydkTdUYJKzzY3vXdwIJDA2jzBQxcVc-tyw696K8VZ1ThERG3hIZn6BuE8VLS0uBZ53kq7RWw-EpFWdHxgHAO9BflUzjj2QqCCfq4NSV174j_8E0BfZ4xZClHH7prjzT-fwB1CjpyGRzcmj8KIOfUPxRIcM45Jaigt0JhIYKxmXNVSzRwpSEUr1KUT3wq9fNlNTPWHv0B4YiXSFZIX-4Ws0AhJ6Y2RTbNOeg1YOss97EZLQeo35lngjoZ7l6SHQIaJH24VYpvJ9ehC-gNI_WNiVOgGKp8lFpiKdqX1bFwezeWJdF3KBILYJ8ic4c8pm97rv33y89-tg059tNXgQfmOzAeGxmnEh2_1937VVeuLZ0G-ZU7YKTW4N7L7o9T9uBXbbyBVZ8rOqEavndmer7bsD04sG04ywMrgKRoQ_PpaK9CJBBCDV1MRMnfQ7E2IAO3lZ_eCAgGtl4hrtf-5BV?></g></svg>